# xmcd CD database file
#
# Track frame offsets:
#	150
#	11477
#	23062
#	34512
#	46072
#	58185
#	67952
#	81145
#	94772
#	108895
#	118920
#	130275
#
# Disc length: 1889 seconds
#
# Revision: 0
# Processed by: cddbd v1.5.2PL0 Copyright (c) Steve Scherf et al.
# Submitted via: CDex 1.70beta2
#
DISCID=92075f0c
DTITLE=JackTeagarden - This Is Teagarden!
DYEAR=1956
DGENRE=Jazz
TTITLE0=Beale Street Blues
TTITLE1=The Sheik Of Araby
TTITLE2=Peg O' My Heart
TTITLE3=I'm Coming Virginia
TTITLE4=If I Could Be With You(One Hour Tonight)
TTITLE5=After You've Gone
TTITLE6=Aunt Hagar's Children Blues
TTITLE7=Stars Fell On Alabama
TTITLE8=Fare Thee Well To Harrem
TTITLE9=My Kinda Love
TTITLE10=Old Pigeon-Toed Jord
TTITLE11=Monday Date
EXTD=YEAR: 1956
EXTT0=
EXTT1=
EXTT2=
EXTT3=
EXTT4=
EXTT5=
EXTT6=
EXTT7=
EXTT8=
EXTT9=
EXTT10=
EXTT11=
PLAYORDER=
